<svg id="Filled" height="70" viewBox="0 0 512 512" width="70" xmlns="http://www.w3.org/2000/svg"><rect fill="#ce3536" height="320" rx="16" width="432" x="24" y="88"/><path d="m56 56h368v320h-368z" fill="#fae8d8"/><path d="m328 56h64v80l-32-16-32 16z" fill="#4c8f56"/><path d="m488 232v224h-32a80 80 0 0 1 -80-80h.16l-51.9-76.805a32 32 0 0 1 8.6-44.43 32 32 0 0 1 44.43 8.6l46.71 69.125v-196.49z" fill="#f5cbaa"/><path d="m88 128h120a8 8 0 0 0 0-16h-120a8 8 0 0 0 0 16z"/><path d="m208 160h-120a8 8 0 0 0 0 16h120a8 8 0 0 0 0-16z"/><path d="m208 208h-120a8 8 0 0 0 0 16h120a8 8 0 0 0 0-16z"/><path d="m208 256h-120a8 8 0 0 0 0 16h120a8 8 0 0 0 0-16z"/><path d="m208 304h-120a8 8 0 0 0 0 16h120a8 8 0 0 0 0-16z"/><path d="m392 160h-120a8 8 0 0 0 0 16h120a8 8 0 0 0 0-16z"/><path d="m392 208h-119.184a8 8 0 0 0 0 16h119.184a8 8 0 0 0 0-16z"/><path d="m464 181.578v-77.578a24.027 24.027 0 0 0 -24-24h-8v-24a8 8 0 0 0 -8-8h-368a8 8 0 0 0 -8 8v24h-8a24.027 24.027 0 0 0 -24 24v288a24.027 24.027 0 0 0 24 24h337.639a88.084 88.084 0 0 0 78.361 48h32a8 8 0 0 0 8-8v-224a7.993 7.993 0 0 0 -1.344-4.438zm-24-85.578a8.009 8.009 0 0 1 8 8v53.578l-16-24v-37.578zm-24 40v170.36l-23.241-34.4a8 8 0 0 0 -.759-15.96h-10.231a39.983 39.983 0 0 0 -61.984 0h-46.965a8 8 0 1 0 0 16h39.08a39.9 39.9 0 0 0 5.741 31.674l.221.326h-45.042a8 8 0 1 0 0 16h55.847l32.433 48h-113.1v-304h72v48h-48a8 8 0 0 0 0 16h48v8a8 8 0 0 0 11.578 7.155l28.422-14.211 28.422 14.211a8 8 0 0 0 11.578-7.155v-72h16zm-80-72h48v59.056l-20.422-10.211a8 8 0 0 0 -7.156 0l-20.422 10.211zm-272 0h168v304h-168zm-24 336a8.009 8.009 0 0 1 -8-8v-288a8.009 8.009 0 0 1 8-8h8v280a8 8 0 0 0 8 8h312.383a87.466 87.466 0 0 0 2.949 16zm440 48h-24a72.085 72.085 0 0 1 -71.984-70.485 8 8 0 0 0 -1.227-5.994l-43.2-63.943-.068-.1-8.623-12.763a24 24 0 0 1 39.772-26.872l.378.56c.03.045.06.09.091.134l46.236 68.431a8 8 0 0 0 14.625-4.478v-170.068l48 72z"/></svg>